<mxfile host="app.diagrams.net" agent="Mozilla/5.0 (Windows NT 10.0; Win64; x64) AppleWebKit/537.36 (KHTML, like Gecko) Chrome/138.0.0.0 Safari/537.36 Edg/138.0.0.0" version="28.0.7">
  <diagram name="Page-1" id="W1gebfnubh0FSxZTr-fW">
    <mxGraphModel dx="2314" dy="1922" grid="1" gridSize="10" guides="1" tooltips="1" connect="1" arrows="1" fold="1" page="1" pageScale="1" pageWidth="850" pageHeight="1100" math="0" shadow="0">
      <root>
        <mxCell id="0" />
        <mxCell id="1" parent="0" />
        <mxCell id="9aAEH4lfcey32dS3GUYK-1" value="4S LiPo" style="rounded=0;whiteSpace=wrap;html=1;fillColor=#f5f5f5;fontColor=#333333;strokeColor=#666666;fontSize=20;" vertex="1" parent="1">
          <mxGeometry x="-690" y="250" width="420" height="130" as="geometry" />
        </mxCell>
        <mxCell id="9aAEH4lfcey32dS3GUYK-2" value="&lt;font style=&quot;font-size: 20px;&quot;&gt;HL&lt;/font&gt;&lt;div&gt;&lt;font style=&quot;font-size: 20px;&quot;&gt;MCU&lt;/font&gt;&lt;/div&gt;" style="rounded=0;whiteSpace=wrap;html=1;fillColor=#d5e8d4;strokeColor=#82b366;" vertex="1" parent="1">
          <mxGeometry x="580" y="410" width="180" height="380" as="geometry" />
        </mxCell>
        <mxCell id="9aAEH4lfcey32dS3GUYK-4" value="&lt;span style=&quot;font-size: 20px;&quot;&gt;LL MCU&lt;/span&gt;" style="rounded=0;whiteSpace=wrap;html=1;fillColor=#d5e8d4;strokeColor=#82b366;" vertex="1" parent="1">
          <mxGeometry x="860" y="410" width="180" height="380" as="geometry" />
        </mxCell>
        <mxCell id="9aAEH4lfcey32dS3GUYK-5" value="Motor 1" style="ellipse;whiteSpace=wrap;html=1;aspect=fixed;" vertex="1" parent="1">
          <mxGeometry x="520" y="-120" width="120" height="120" as="geometry" />
        </mxCell>
        <mxCell id="9aAEH4lfcey32dS3GUYK-9" value="ESC" style="rounded=0;whiteSpace=wrap;html=1;fillColor=#dae8fc;strokeColor=#6c8ebf;" vertex="1" parent="1">
          <mxGeometry x="530" y="40" width="100" height="130" as="geometry" />
        </mxCell>
        <mxCell id="9aAEH4lfcey32dS3GUYK-10" value="" style="endArrow=none;html=1;rounded=0;entryX=0.5;entryY=1;entryDx=0;entryDy=0;exitX=0.25;exitY=0;exitDx=0;exitDy=0;" edge="1" parent="1" source="9aAEH4lfcey32dS3GUYK-9" target="9aAEH4lfcey32dS3GUYK-5">
          <mxGeometry width="50" height="50" relative="1" as="geometry">
            <mxPoint x="570" y="190" as="sourcePoint" />
            <mxPoint x="620" y="140" as="targetPoint" />
          </mxGeometry>
        </mxCell>
        <mxCell id="9aAEH4lfcey32dS3GUYK-11" value="" style="endArrow=none;html=1;rounded=0;exitX=0.5;exitY=0;exitDx=0;exitDy=0;" edge="1" parent="1" source="9aAEH4lfcey32dS3GUYK-9">
          <mxGeometry width="50" height="50" relative="1" as="geometry">
            <mxPoint x="600" y="60" as="sourcePoint" />
            <mxPoint x="580" as="targetPoint" />
          </mxGeometry>
        </mxCell>
        <mxCell id="9aAEH4lfcey32dS3GUYK-12" value="" style="endArrow=none;html=1;rounded=0;exitX=0.75;exitY=0;exitDx=0;exitDy=0;" edge="1" parent="1" source="9aAEH4lfcey32dS3GUYK-9">
          <mxGeometry width="50" height="50" relative="1" as="geometry">
            <mxPoint x="590" y="70" as="sourcePoint" />
            <mxPoint x="580" as="targetPoint" />
          </mxGeometry>
        </mxCell>
        <mxCell id="9aAEH4lfcey32dS3GUYK-13" value="Motor 2" style="ellipse;whiteSpace=wrap;html=1;aspect=fixed;" vertex="1" parent="1">
          <mxGeometry x="680" y="-120" width="120" height="120" as="geometry" />
        </mxCell>
        <mxCell id="9aAEH4lfcey32dS3GUYK-14" value="ESC" style="rounded=0;whiteSpace=wrap;html=1;fillColor=#dae8fc;strokeColor=#6c8ebf;" vertex="1" parent="1">
          <mxGeometry x="690" y="40" width="100" height="130" as="geometry" />
        </mxCell>
        <mxCell id="9aAEH4lfcey32dS3GUYK-15" value="" style="endArrow=none;html=1;rounded=0;entryX=0.5;entryY=1;entryDx=0;entryDy=0;exitX=0.25;exitY=0;exitDx=0;exitDy=0;" edge="1" parent="1" source="9aAEH4lfcey32dS3GUYK-14" target="9aAEH4lfcey32dS3GUYK-13">
          <mxGeometry width="50" height="50" relative="1" as="geometry">
            <mxPoint x="730" y="190" as="sourcePoint" />
            <mxPoint x="780" y="140" as="targetPoint" />
          </mxGeometry>
        </mxCell>
        <mxCell id="9aAEH4lfcey32dS3GUYK-16" value="" style="endArrow=none;html=1;rounded=0;exitX=0.5;exitY=0;exitDx=0;exitDy=0;" edge="1" parent="1" source="9aAEH4lfcey32dS3GUYK-14">
          <mxGeometry width="50" height="50" relative="1" as="geometry">
            <mxPoint x="760" y="60" as="sourcePoint" />
            <mxPoint x="740" as="targetPoint" />
          </mxGeometry>
        </mxCell>
        <mxCell id="9aAEH4lfcey32dS3GUYK-17" value="" style="endArrow=none;html=1;rounded=0;exitX=0.75;exitY=0;exitDx=0;exitDy=0;" edge="1" parent="1" source="9aAEH4lfcey32dS3GUYK-14">
          <mxGeometry width="50" height="50" relative="1" as="geometry">
            <mxPoint x="750" y="70" as="sourcePoint" />
            <mxPoint x="740" as="targetPoint" />
          </mxGeometry>
        </mxCell>
        <mxCell id="9aAEH4lfcey32dS3GUYK-18" value="Motor 3" style="ellipse;whiteSpace=wrap;html=1;aspect=fixed;" vertex="1" parent="1">
          <mxGeometry x="840" y="-120" width="120" height="120" as="geometry" />
        </mxCell>
        <mxCell id="9aAEH4lfcey32dS3GUYK-19" value="ESC" style="rounded=0;whiteSpace=wrap;html=1;fillColor=#dae8fc;strokeColor=#6c8ebf;" vertex="1" parent="1">
          <mxGeometry x="850" y="40" width="100" height="130" as="geometry" />
        </mxCell>
        <mxCell id="9aAEH4lfcey32dS3GUYK-20" value="" style="endArrow=none;html=1;rounded=0;entryX=0.5;entryY=1;entryDx=0;entryDy=0;exitX=0.25;exitY=0;exitDx=0;exitDy=0;" edge="1" parent="1" source="9aAEH4lfcey32dS3GUYK-19" target="9aAEH4lfcey32dS3GUYK-18">
          <mxGeometry width="50" height="50" relative="1" as="geometry">
            <mxPoint x="890" y="190" as="sourcePoint" />
            <mxPoint x="940" y="140" as="targetPoint" />
          </mxGeometry>
        </mxCell>
        <mxCell id="9aAEH4lfcey32dS3GUYK-21" value="" style="endArrow=none;html=1;rounded=0;exitX=0.5;exitY=0;exitDx=0;exitDy=0;" edge="1" parent="1" source="9aAEH4lfcey32dS3GUYK-19">
          <mxGeometry width="50" height="50" relative="1" as="geometry">
            <mxPoint x="920" y="60" as="sourcePoint" />
            <mxPoint x="900" as="targetPoint" />
          </mxGeometry>
        </mxCell>
        <mxCell id="9aAEH4lfcey32dS3GUYK-22" value="" style="endArrow=none;html=1;rounded=0;exitX=0.75;exitY=0;exitDx=0;exitDy=0;" edge="1" parent="1" source="9aAEH4lfcey32dS3GUYK-19">
          <mxGeometry width="50" height="50" relative="1" as="geometry">
            <mxPoint x="910" y="70" as="sourcePoint" />
            <mxPoint x="900" as="targetPoint" />
          </mxGeometry>
        </mxCell>
        <mxCell id="9aAEH4lfcey32dS3GUYK-23" value="Motor 4" style="ellipse;whiteSpace=wrap;html=1;aspect=fixed;" vertex="1" parent="1">
          <mxGeometry x="1000" y="-120" width="120" height="120" as="geometry" />
        </mxCell>
        <mxCell id="9aAEH4lfcey32dS3GUYK-24" value="ESC" style="rounded=0;whiteSpace=wrap;html=1;fillColor=#dae8fc;strokeColor=#6c8ebf;" vertex="1" parent="1">
          <mxGeometry x="1010" y="40" width="100" height="130" as="geometry" />
        </mxCell>
        <mxCell id="9aAEH4lfcey32dS3GUYK-25" value="" style="endArrow=none;html=1;rounded=0;entryX=0.5;entryY=1;entryDx=0;entryDy=0;exitX=0.25;exitY=0;exitDx=0;exitDy=0;" edge="1" parent="1" source="9aAEH4lfcey32dS3GUYK-24" target="9aAEH4lfcey32dS3GUYK-23">
          <mxGeometry width="50" height="50" relative="1" as="geometry">
            <mxPoint x="1050" y="190" as="sourcePoint" />
            <mxPoint x="1100" y="140" as="targetPoint" />
          </mxGeometry>
        </mxCell>
        <mxCell id="9aAEH4lfcey32dS3GUYK-26" value="" style="endArrow=none;html=1;rounded=0;exitX=0.5;exitY=0;exitDx=0;exitDy=0;" edge="1" parent="1" source="9aAEH4lfcey32dS3GUYK-24">
          <mxGeometry width="50" height="50" relative="1" as="geometry">
            <mxPoint x="1080" y="60" as="sourcePoint" />
            <mxPoint x="1060" as="targetPoint" />
          </mxGeometry>
        </mxCell>
        <mxCell id="9aAEH4lfcey32dS3GUYK-27" value="" style="endArrow=none;html=1;rounded=0;exitX=0.75;exitY=0;exitDx=0;exitDy=0;" edge="1" parent="1" source="9aAEH4lfcey32dS3GUYK-24">
          <mxGeometry width="50" height="50" relative="1" as="geometry">
            <mxPoint x="1070" y="70" as="sourcePoint" />
            <mxPoint x="1060" as="targetPoint" />
          </mxGeometry>
        </mxCell>
        <mxCell id="9aAEH4lfcey32dS3GUYK-29" value="LM2596" style="rounded=0;whiteSpace=wrap;html=1;fillColor=#dae8fc;strokeColor=#6c8ebf;" vertex="1" parent="1">
          <mxGeometry x="-270" y="480" width="180" height="70" as="geometry" />
        </mxCell>
        <mxCell id="9aAEH4lfcey32dS3GUYK-30" value="MPU-6050&lt;span style=&quot;color: rgba(0, 0, 0, 0); font-family: monospace; font-size: 0px; text-align: start; text-wrap-mode: nowrap;&quot;&gt;%3CmxGraphModel%3E%3Croot%3E%3CmxCell%20id%3D%220%22%2F%3E%3CmxCell%20id%3D%221%22%20parent%3D%220%22%2F%3E%3CmxCell%20id%3D%222%22%20value%3D%22LM2596%22%20style%3D%22rounded%3D0%3BwhiteSpace%3Dwrap%3Bhtml%3D1%3BfillColor%3D%23dae8fc%3BstrokeColor%3D%236c8ebf%3B%22%20vertex%3D%221%22%20parent%3D%221%22%3E%3CmxGeometry%20x%3D%22-270%22%20y%3D%22480%22%20width%3D%22180%22%20height%3D%2270%22%20as%3D%22geometry%22%2F%3E%3C%2FmxCell%3E%3C%2Froot%3E%3C%2FmxGraphModel%3E&lt;/span&gt;" style="rounded=0;whiteSpace=wrap;html=1;fillColor=#dae8fc;strokeColor=#6c8ebf;" vertex="1" parent="1">
          <mxGeometry x="-10" y="620" width="140" height="90" as="geometry" />
        </mxCell>
        <mxCell id="9aAEH4lfcey32dS3GUYK-31" value="BMP180" style="rounded=0;whiteSpace=wrap;html=1;fillColor=#dae8fc;strokeColor=#6c8ebf;" vertex="1" parent="1">
          <mxGeometry x="120" y="470" width="90" height="70" as="geometry" />
        </mxCell>
        <mxCell id="9aAEH4lfcey32dS3GUYK-32" value="QMC5883L" style="rounded=0;whiteSpace=wrap;html=1;fillColor=#dae8fc;strokeColor=#6c8ebf;" vertex="1" parent="1">
          <mxGeometry x="240" y="470" width="120" height="80" as="geometry" />
        </mxCell>
        <mxCell id="9aAEH4lfcey32dS3GUYK-33" value="" style="rounded=0;whiteSpace=wrap;html=1;fillColor=#292929;" vertex="1" parent="1">
          <mxGeometry x="220" y="670" width="210" height="120" as="geometry" />
        </mxCell>
        <mxCell id="9aAEH4lfcey32dS3GUYK-34" value="" style="ellipse;whiteSpace=wrap;html=1;aspect=fixed;fillColor=#949494;" vertex="1" parent="1">
          <mxGeometry x="275" y="705" width="50" height="50" as="geometry" />
        </mxCell>
        <mxCell id="9aAEH4lfcey32dS3GUYK-35" value="" style="ellipse;whiteSpace=wrap;html=1;aspect=fixed;fillColor=#949494;" vertex="1" parent="1">
          <mxGeometry x="325" y="705" width="50" height="50" as="geometry" />
        </mxCell>
        <mxCell id="9aAEH4lfcey32dS3GUYK-36" value="TF Luna" style="text;html=1;align=center;verticalAlign=middle;whiteSpace=wrap;rounded=0;fontColor=#FEFEFE;" vertex="1" parent="1">
          <mxGeometry x="295" y="755" width="60" height="30" as="geometry" />
        </mxCell>
        <mxCell id="9aAEH4lfcey32dS3GUYK-37" value="HC-12" style="rounded=0;whiteSpace=wrap;html=1;fillColor=#fff2cc;strokeColor=#d6b656;" vertex="1" parent="1">
          <mxGeometry x="350" y="330" width="170" height="60" as="geometry" />
        </mxCell>
        <mxCell id="9aAEH4lfcey32dS3GUYK-38" value="" style="endArrow=none;html=1;rounded=0;exitX=1;exitY=0.25;exitDx=0;exitDy=0;strokeWidth=3;fillColor=#f8cecc;strokeColor=#b85450;" edge="1" parent="1" source="9aAEH4lfcey32dS3GUYK-1">
          <mxGeometry width="50" height="50" relative="1" as="geometry">
            <mxPoint x="110" y="410" as="sourcePoint" />
            <mxPoint x="-160" y="283" as="targetPoint" />
          </mxGeometry>
        </mxCell>
        <mxCell id="9aAEH4lfcey32dS3GUYK-39" value="" style="endArrow=none;html=1;rounded=0;exitX=1;exitY=0.25;exitDx=0;exitDy=0;strokeWidth=3;fillColor=#f8cecc;strokeColor=#000000;" edge="1" parent="1">
          <mxGeometry width="50" height="50" relative="1" as="geometry">
            <mxPoint x="-270" y="350" as="sourcePoint" />
            <mxPoint x="-160" y="350" as="targetPoint" />
          </mxGeometry>
        </mxCell>
      </root>
    </mxGraphModel>
  </diagram>
</mxfile>
